<svg width="668" height="350" viewBox="0 0 668 350" fill="none" xmlns="http://www.w3.org/2000/svg">
<path d="M126.086 249.625V250.625H127.086V249.625H126.086ZM127.661 140.95L128.655 141.06L129.074 137.289L126.851 140.364L127.661 140.95ZM49.0863 249.625L48.276 249.039L47.1293 250.625H49.0863V249.625ZM195.561 249.625H196.561V248.625H195.561V249.625ZM193.286 280.775L194.019 281.455L194.031 281.443L194.042 281.43L193.286 280.775ZM163.711 283.225V282.225H162.711V283.225H163.711ZM163.711 345V346H164.711V345H163.711ZM126.086 345H125.086V346H126.086V345ZM126.086 283.225H127.086V282.225H126.086V283.225ZM11.6363 280.6L10.9922 281.365L11.0043 281.375L11.0167 281.385L11.6363 280.6ZM7.43633 273.775L6.45724 273.979L6.45915 273.987L7.43633 273.775ZM2.88633 251.9L2.0858 251.301L1.8154 251.662L1.90728 252.104L2.88633 251.9ZM122.761 91.775V90.775H122.261L121.961 91.1757L122.761 91.775ZM163.711 91.775H164.711V90.775H163.711V91.775ZM163.711 249.625H162.711V250.625H163.711V249.625ZM127.086 249.625V166.85H125.086V249.625H127.086ZM127.086 166.85C127.086 159.077 127.608 150.481 128.655 141.06L126.667 140.84C125.614 150.319 125.086 158.99 125.086 166.85H127.086ZM126.851 140.364L48.276 249.039L49.8967 250.211L128.472 141.536L126.851 140.364ZM49.0863 250.625H126.086V248.625H49.0863V250.625ZM194.561 249.625V274.65H196.561V249.625H194.561ZM194.561 274.65C194.561 276.745 193.888 278.553 192.531 280.12L194.042 281.43C195.718 279.497 196.561 277.222 196.561 274.65H194.561ZM192.554 280.095C191.272 281.474 189.409 282.225 186.811 282.225V284.225C189.813 284.225 192.267 283.342 194.019 281.455L192.554 280.095ZM186.811 282.225H163.711V284.225H186.811V282.225ZM162.711 283.225V345H164.711V283.225H162.711ZM163.711 344H126.086V346H163.711V344ZM127.086 345V283.225H125.086V345H127.086ZM126.086 282.225H19.3363V284.225H126.086V282.225ZM19.3363 282.225C16.6366 282.225 14.29 281.421 12.256 279.815L11.0167 281.385C13.416 283.279 16.2028 284.225 19.3363 284.225V282.225ZM12.2805 279.835C10.2228 278.102 8.9472 276.018 8.4135 273.563L6.45915 273.987C7.09213 276.899 8.61655 279.364 10.9922 281.365L12.2805 279.835ZM8.41537 273.571L3.86537 251.696L1.90728 252.104L6.45728 273.979L8.41537 273.571ZM3.68685 252.499L123.562 92.3743L121.961 91.1757L2.0858 251.301L3.68685 252.499ZM122.761 92.775H163.711V90.775H122.761V92.775ZM162.711 91.775V249.625H164.711V91.775H162.711ZM163.711 250.625H195.561V248.625H163.711V250.625Z" fill="#DCDCDC"/>
<path d="M588.086 249.625V250.625H589.086V249.625H588.086ZM589.661 140.95L590.655 141.06L591.074 137.289L588.851 140.364L589.661 140.95ZM511.086 249.625L510.276 249.039L509.129 250.625H511.086V249.625ZM657.561 249.625H658.561V248.625H657.561V249.625ZM655.286 280.775L656.019 281.455L656.031 281.443L656.042 281.43L655.286 280.775ZM625.711 283.225V282.225H624.711V283.225H625.711ZM625.711 345V346H626.711V345H625.711ZM588.086 345H587.086V346H588.086V345ZM588.086 283.225H589.086V282.225H588.086V283.225ZM473.636 280.6L472.992 281.365L473.004 281.375L473.017 281.385L473.636 280.6ZM469.436 273.775L468.457 273.979L468.459 273.987L469.436 273.775ZM464.886 251.9L464.086 251.301L463.815 251.662L463.907 252.104L464.886 251.9ZM584.761 91.775V90.775H584.261L583.961 91.1757L584.761 91.775ZM625.711 91.775H626.711V90.775H625.711V91.775ZM625.711 249.625H624.711V250.625H625.711V249.625ZM589.086 249.625V166.85H587.086V249.625H589.086ZM589.086 166.85C589.086 159.077 589.608 150.481 590.655 141.06L588.667 140.84C587.614 150.319 587.086 158.99 587.086 166.85H589.086ZM588.851 140.364L510.276 249.039L511.897 250.211L590.472 141.536L588.851 140.364ZM511.086 250.625H588.086V248.625H511.086V250.625ZM656.561 249.625V274.65H658.561V249.625H656.561ZM656.561 274.65C656.561 276.745 655.888 278.553 654.531 280.12L656.042 281.43C657.718 279.497 658.561 277.222 658.561 274.65H656.561ZM654.554 280.095C653.272 281.474 651.409 282.225 648.811 282.225V284.225C651.813 284.225 654.267 283.342 656.019 281.455L654.554 280.095ZM648.811 282.225H625.711V284.225H648.811V282.225ZM624.711 283.225V345H626.711V283.225H624.711ZM625.711 344H588.086V346H625.711V344ZM589.086 345V283.225H587.086V345H589.086ZM588.086 282.225H481.336V284.225H588.086V282.225ZM481.336 282.225C478.637 282.225 476.29 281.421 474.256 279.815L473.017 281.385C475.416 283.279 478.203 284.225 481.336 284.225V282.225ZM474.28 279.835C472.223 278.102 470.947 276.018 470.414 273.563L468.459 273.987C469.092 276.899 470.617 279.364 472.992 281.365L474.28 279.835ZM470.415 273.571L465.865 251.696L463.907 252.104L468.457 273.979L470.415 273.571ZM465.687 252.499L585.562 92.3743L583.961 91.1757L464.086 251.301L465.687 252.499ZM584.761 92.775H625.711V90.775H584.761V92.775ZM624.711 91.775V249.625H626.711V91.775H624.711ZM625.711 250.625H657.561V248.625H625.711V250.625Z" fill="#DCDCDC"/>
<path d="M329.562 84.543L338.795 93.7659L341.634 101.958V102.037L341.69 102.092L348.599 109.67L351.073 115.65L355.38 124.708V124.755L360.814 131.531L363.534 143.083V143.209L363.637 143.295L370.514 148.938L370.554 163.315V163.48L370.673 163.598L374.774 167.415L380.207 173.065L382.587 184.208V184.279L382.634 184.342L388.417 192.998L394.35 212.121V212.176V212.231L399.283 219.313L401.385 236.626V236.665V236.72L405.399 245.636L411.276 262.382L414.695 271.275L415.448 281.088V281.237L415.552 281.339L420.62 286.266L420.906 297.283V297.448L421.033 297.558L423.848 300.163L425.966 312.211V312.29L429.091 320.159L429.012 323.535V323.661L429.083 323.771L432.193 328.264L432.28 332.836V332.907V332.978L435.556 341.013L435.421 347.017L427.727 348.591L424.499 346.143L424.443 346.104H424.38L420.287 344.751L417.305 342.39L417.233 342.335H417.138L407.295 340.257L399.545 336.283H399.49H399.434L391.962 334.882L388.559 334.481L382.515 332.671H382.46H374.036H364.01L358.601 330.838H358.545H358.482L328.095 330.145H328.031H327.96L323.93 331.491L307.805 331.121L300.555 331.672H300.468L300.397 331.711L296.431 333.726L289.903 333.513H289.72L289.601 333.647L287.714 335.717L278.354 335.504H278.219L278.116 335.583L274.42 338.18L269.851 340.596H263.918L263.831 340.643L259.468 342.941L251.536 344.514H251.481L244.834 347.765L234.348 348.205L232.412 336.173L236.117 327.658V327.572V327.485L235.411 311.172L241.161 303.208L241.217 303.13V303.027L242.581 292.663L244.921 287.58L248.007 283.204L248.062 283.126V283.039L250.251 269.339L255.002 260.926L255.042 260.84V260.753L255.835 243.315L260.111 235.658V235.611V235.563L264.338 219.353L269.169 216.362L269.343 216.252V216.055L270.406 201.009L275.007 195.745L275.094 195.642V195.509L275.744 183.327L278.774 179.392L283.081 172.396V172.349V172.294L286.357 160.12L295.733 146.908V146.852V146.789L298.628 136.874L303.95 131.468L304.037 131.381V131.255L305.766 121.301L310.787 113.644V113.597V113.542L313.698 104.382L319.378 99.361L319.449 99.2901V99.1957L322.233 91.1375L329.562 84.543ZM329.562 84L321.876 90.9171L319.052 99.0698L313.294 104.161L310.478 113.431L305.402 121.151L303.665 131.216L298.271 136.725L295.407 146.679L286.064 159.908L282.764 172.137L278.465 179.132L275.364 183.154L274.705 195.453L270.073 200.883L268.994 216.055L264.037 219.132L259.754 235.461L255.439 243.205L254.646 260.73L249.934 269.213L247.729 282.976L244.62 287.383L242.24 292.553L240.868 302.98L235.006 311.054L235.752 327.501L232 336.126L233.983 348.717L244.913 348.252L251.631 344.971L259.563 343.358L263.981 340.997H269.906L274.594 338.518L278.267 335.882L287.785 336.102L289.8 333.899L296.494 334.048L300.524 331.987L307.781 331.436L323.938 331.805L328.031 330.436L358.418 331.129L363.883 332.986H373.981H382.341L388.385 334.788L391.819 335.197L399.363 336.606L407.16 340.611L417.146 342.657L420.184 345.065L424.348 346.442L427.719 349L435.849 347.379L436 340.973L432.677 332.868L432.589 328.146L429.417 323.551L429.496 320.096L426.331 312.211L424.3 300.013L421.405 297.259L421.112 286.085L415.932 281.04L415.139 271.172L411.705 262.225L405.827 245.495L401.806 236.539L399.688 219.148L394.699 212.011L388.75 192.841L382.928 184.122L380.548 172.861L374.996 167.14L370.951 163.315L370.911 148.749L363.971 143.02L361.234 131.389L355.737 124.543L351.446 115.477L348.948 109.449L342.023 101.824L339.16 93.5534L329.562 84Z" stroke="#DCDCDC" stroke-width="0.5"/>
</svg>
