<svg xmlns="http://www.w3.org/2000/svg" width="88" height="117" viewBox="0 0 88 117" fill="none"><style>  
path {stroke: black;}
</style><mask fill="white"><path d="M86.6 110L86.2 108.1C86.1 107.9 86.1 107.7 86 107.5L85.3 106.1C85.2 105.8 85.1 105.6 85.1 105.3L84.9 103.7C84.9 103.5 84.8 103.2 84.7 103L83.9 100.9C83.8 100.8 83.8 100.6 83.8 100.4L83.1 97C83.1 96.8 83 96.7 82.9 96.5L81.8 93.8C81.8 93.7 81.7 93.5 81.7 93.4L80.8 89.6C80.7 89.4 80.6 89.2 80.5 89L79.6 87.2C79.5 87 79.4 86.7 79.3 86.4L78.6 82.3C78.6 82.1 78.5 81.8 78.4 81.6L77.4 79.5C77.3 79.3 77.2 79.1 77.2 78.9L75.9 73.4C75.9 73.3 75.8 73.1 75.7 72.9L73.3 67.7C73.3 67.5 73.2 67.3 73.2 67.1L72 62.5C72 62.3 72 62.2 71.9 62.1L69.9 57.3C69.9 57.2 69.9 57.1 69.8 57L67.4 49C67.3 48.8 67.3 48.7 67.2 48.5L65.1 44.5C65.1 44.4 65 44.3 65 44.2L62.6 37.8C62.6 37.6 62.5 37.4 62.4 37.3L60.5 34C60.4 33.9 60.3 33.7 60.3 33.6L58.7 29.5C58.7 29.4 58.7 29.4 58.6 29.3L56.5 25.1C56.5 25 56.5 25 56.5 24.9L54.6 20.3C54.5 20.2 54.5 20 54.4 19.9L52.9 17.6C52.8 17.4 52.7 17.3 52.6 17.1L51.2 13.7C51.2 13.5 51.1 13.4 51 13.3L49 10C49 9.9 48.9 9.8 48.9 9.8L46.9 7C46.9 6.9 46.8 6.8 46.8 6.7L45 3.5C44.9 3.2 44.7 3 44.5 2.9L42 0.2 39.7 2.3C39.5 2.5 39.3 2.8 39.1 3L37.5 6C37.4 6.1 37.4 6.3 37.3 6.4L35.6 8.6C35.4 8.8 35.3 9.1 35.2 9.3L33.8 12.9C33.8 13.1 33.7 13.3 33.6 13.5L31.7 16.3C31.6 16.5 31.5 16.7 31.4 17L30.5 19.9C30.4 20.1 30.4 20.3 30.2 20.5L28.7 23.1C28.5 23.3 28.4 23.5 28.4 23.8L27.3 27.4C27.3 27.7 27.1 28 27 28.2L24.3 32.2C24.1 32.4 24 32.6 23.9 32.9L22 39C22 39.2 21.9 39.3 21.8 39.5L19.7 43.4C19.6 43.7 19.5 43.9 19.5 44.1L18.3 49.1C18.3 49.2 18.2 49.4 18.2 49.5L16.7 53.1C16.6 53.3 16.6 53.5 16.5 53.7L15.9 57.9C15.8 58.2 15.7 58.5 15.6 58.8L13.8 62.2C13.7 62.4 13.6 62.7 13.5 63L12.8 66.9C12.7 67.1 12.7 67.3 12.6 67.6L10.5 71.9C10.3 72.2 10.2 72.5 10.2 72.8L9.6 77.6C9.6 77.9 9.5 78.2 9.4 78.4L7.7 82.2C7.6 82.4 7.5 82.7 7.5 82.9L6.7 87.4C6.6 87.7 6.5 88 6.4 88.2L4.9 91C4.7 91.3 4.6 91.6 4.6 91.8L3.7 96.4C3.6 96.5 3.6 96.7 3.5 96.9L2 100.7C1.9 101 1.8 101.2 1.8 101.5L1.3 107.2C1.3 107.3 1.3 107.5 1.2 107.6L0 112.6 0.5 116.7 4.3 116.5C4.6 116.5 4.9 116.4 5.2 116.3L8.1 115.2C8.2 115.1 8.4 115.1 8.5 115.1L10.9 114.6C11.1 114.5 11.3 114.5 11.5 114.4L13.4 113.5C13.6 113.4 13.8 113.4 14 113.3L16.1 112.9C16.3 112.8 16.6 112.7 16.8 112.6L18.4 111.8C18.7 111.7 19 111.6 19.3 111.5L22 111.2C22.2 111.2 22.4 111.1 22.6 111.1L24.4 110.4C24.7 110.3 25 110.2 25.3 110.2L27.9 110.1C28.1 110.1 28.4 110.1 28.6 110L30.4 109.4C30.7 109.3 30.9 109.3 31.2 109.3L32.6 109.2C32.7 109.2 32.8 109.2 32.8 109.2L35.5 108.9C35.6 108.8 35.7 108.8 35.8 108.8H50.9C51 108.8 51.2 108.8 51.3 108.9L55.9 109.5C56 109.5 56.2 109.5 56.3 109.5L60.5 109.6 63 109.8C63.1 109.8 63.3 109.8 63.5 109.9L66.6 110.6C66.7 110.6 66.7 110.7 66.8 110.7L71 111.4C71.3 111.4 71.5 111.5 71.7 111.6L74.5 112.9C74.7 113 74.9 113 75.1 113.1L78 113.8C78.2 113.8 78.5 113.9 78.7 114L83.2 116.5 87.6 116.8 88 113.4 86.8 110.6C86.7 110.4 86.6 110.2 86.6 110Z"/></mask><path d="M86.6 110L86.2 108.1C86.1 107.9 86.1 107.7 86 107.5L85.3 106.1C85.2 105.8 85.1 105.6 85.1 105.3L84.9 103.7C84.9 103.5 84.8 103.2 84.7 103L83.9 100.9C83.8 100.8 83.8 100.6 83.8 100.4L83.1 97C83.1 96.8 83 96.7 82.9 96.5L81.8 93.8C81.8 93.7 81.7 93.5 81.7 93.4L80.8 89.6C80.7 89.4 80.6 89.2 80.5 89L79.6 87.2C79.5 87 79.4 86.7 79.3 86.4L78.6 82.3C78.6 82.1 78.5 81.8 78.4 81.6L77.4 79.5C77.3 79.3 77.2 79.1 77.2 78.9L75.9 73.4C75.9 73.3 75.8 73.1 75.7 72.9L73.3 67.7C73.3 67.5 73.2 67.3 73.2 67.1L72 62.5C72 62.3 72 62.2 71.9 62.1L69.9 57.3C69.9 57.2 69.9 57.1 69.8 57L67.4 49C67.3 48.8 67.3 48.7 67.2 48.5L65.1 44.5C65.1 44.4 65 44.3 65 44.2L62.6 37.8C62.6 37.6 62.5 37.4 62.4 37.3L60.5 34C60.4 33.9 60.3 33.7 60.3 33.6L58.7 29.5C58.7 29.4 58.7 29.4 58.6 29.3L56.5 25.1C56.5 25 56.5 25 56.5 24.9L54.6 20.3C54.5 20.2 54.5 20 54.4 19.9L52.9 17.6C52.8 17.4 52.7 17.3 52.6 17.1L51.2 13.7C51.2 13.5 51.1 13.4 51 13.3L49 10C49 9.9 48.9 9.8 48.9 9.8L46.9 7C46.9 6.9 46.8 6.8 46.8 6.7L45 3.5C44.9 3.2 44.7 3 44.5 2.9L42 0.2 39.7 2.3C39.5 2.5 39.3 2.8 39.1 3L37.5 6C37.4 6.1 37.4 6.3 37.3 6.4L35.6 8.6C35.4 8.8 35.3 9.1 35.2 9.3L33.8 12.9C33.8 13.1 33.7 13.3 33.6 13.5L31.7 16.3C31.6 16.5 31.5 16.7 31.4 17L30.5 19.9C30.4 20.1 30.4 20.3 30.2 20.5L28.7 23.1C28.5 23.3 28.4 23.5 28.4 23.8L27.3 27.4C27.3 27.7 27.1 28 27 28.2L24.3 32.2C24.1 32.4 24 32.6 23.9 32.9L22 39C22 39.2 21.9 39.3 21.8 39.5L19.7 43.4C19.6 43.7 19.5 43.9 19.5 44.1L18.3 49.1C18.3 49.2 18.2 49.4 18.2 49.5L16.7 53.1C16.6 53.3 16.6 53.5 16.5 53.7L15.9 57.9C15.8 58.2 15.7 58.5 15.6 58.8L13.8 62.2C13.7 62.4 13.6 62.7 13.5 63L12.8 66.9C12.7 67.1 12.7 67.3 12.6 67.6L10.5 71.9C10.3 72.2 10.2 72.5 10.2 72.8L9.6 77.6C9.6 77.9 9.5 78.2 9.4 78.4L7.7 82.2C7.6 82.4 7.5 82.7 7.5 82.9L6.7 87.4C6.6 87.7 6.5 88 6.4 88.2L4.9 91C4.7 91.3 4.6 91.6 4.6 91.8L3.7 96.4C3.6 96.5 3.6 96.7 3.5 96.9L2 100.7C1.9 101 1.8 101.2 1.8 101.5L1.3 107.2C1.3 107.3 1.3 107.5 1.2 107.6L0 112.6 0.5 116.7 4.3 116.5C4.6 116.5 4.9 116.4 5.2 116.3L8.1 115.2C8.2 115.1 8.4 115.1 8.5 115.1L10.9 114.6C11.1 114.5 11.3 114.5 11.5 114.4L13.4 113.5C13.6 113.4 13.8 113.4 14 113.3L16.1 112.9C16.3 112.8 16.6 112.7 16.8 112.6L18.4 111.8C18.7 111.7 19 111.6 19.3 111.5L22 111.2C22.2 111.2 22.4 111.1 22.6 111.1L24.4 110.4C24.7 110.3 25 110.2 25.3 110.2L27.9 110.1C28.1 110.1 28.4 110.1 28.6 110L30.4 109.4C30.7 109.3 30.9 109.3 31.2 109.3L32.6 109.2C32.7 109.2 32.8 109.2 32.8 109.2L35.5 108.9C35.6 108.8 35.7 108.8 35.8 108.8H50.9C51 108.8 51.2 108.8 51.3 108.9L55.9 109.5C56 109.5 56.2 109.5 56.3 109.5L60.5 109.6 63 109.8C63.1 109.8 63.3 109.8 63.5 109.9L66.6 110.6C66.7 110.6 66.7 110.7 66.8 110.7L71 111.4C71.3 111.4 71.5 111.5 71.7 111.6L74.5 112.9C74.7 113 74.9 113 75.1 113.1L78 113.8C78.2 113.8 78.5 113.9 78.7 114L83.2 116.5 87.6 116.8 88 113.4 86.8 110.6C86.7 110.4 86.6 110.2 86.6 110Z" mask="url(#path-1-inside-1)" style="fill:white;stroke-width:1"/><path d="M42.2 46.5V64.3L43.2 67.5 41.6 70.5 43.2 72.9 42.2 75.3 43.2 78.2 42.2 83.6V91.3"/><path d="M49.7 53.8L42.4 46.5 35 53.8"/></svg>
