<svg xmlns="http://www.w3.org/2000/svg" width="14" height="18" viewBox="0 0 14 18" fill="none"><path d="M13.7 15.5L12.7 4.5C12.7 4.3 12.5 4.1 12.2 4.1H10.2C10.2 2.2 8.7 0.7 6.8 0.7 5 0.7 3.5 2.2 3.5 4.1H1.4C1.2 4.1 1 4.3 1 4.5L0 15.5C0 15.5 0 15.5 0 15.5 0 16.8 1.1 17.8 2.6 17.8H11.1C12.5 17.8 13.7 16.8 13.7 15.5 13.7 15.5 13.7 15.5 13.7 15.5ZM6.8 1.7C8.2 1.7 9.2 2.8 9.3 4.1H4.4C4.4 2.8 5.5 1.7 6.8 1.7ZM11.1 16.9H2.6C1.7 16.9 1 16.3 0.9 15.6L1.9 5H3.5V6.4C3.5 6.7 3.7 6.9 3.9 6.9 4.2 6.9 4.4 6.7 4.4 6.4V5H9.3V6.4C9.3 6.7 9.5 6.9 9.7 6.9 10 6.9 10.2 6.7 10.2 6.4V5H11.8L12.7 15.6C12.7 16.3 12 16.9 11.1 16.9Z" fill="black"/></svg>