<svg width="11" height="14" viewBox="0 0 11 14" fill="none" xmlns="http://www.w3.org/2000/svg">
<path d="M5.43748 10.473C5.54921 10.473 5.63989 10.3823 5.63989 10.2706L5.63949 5.70461C5.63949 5.59288 5.54881 5.5022 5.43708 5.5022C5.32535 5.5022 5.23467 5.59288 5.23467 5.70461L5.23507 10.2706C5.23507 10.3823 5.32575 10.473 5.43748 10.473Z" fill="#B8B8B8"/>
<path d="M5.43772 10.473C5.48954 10.473 5.54136 10.4532 5.58103 10.4139L7.32703 8.66792C7.40597 8.58898 7.40597 8.46066 7.32703 8.38171C7.24809 8.30277 7.11976 8.30277 7.04082 8.38171L5.43813 9.9844L3.83544 8.38171C3.7565 8.30277 3.62817 8.30277 3.54923 8.38171C3.47029 8.46066 3.47029 8.58898 3.54923 8.66792L5.29523 10.4139C5.33409 10.4532 5.38591 10.473 5.43772 10.473Z" fill="#B8B8B8"/>
<path d="M1.01233 13.9167H9.86295C10.4208 13.9167 10.875 13.4629 10.875 12.9046V1.45102C10.875 0.89277 10.4208 0.438965 9.86295 0.438965H3.43559C3.32386 0.438965 3.23318 0.529645 3.23318 0.641376C3.23318 0.753107 3.32386 0.843787 3.43559 0.843787H9.86295C10.1977 0.843787 10.4702 1.11623 10.4702 1.45102V12.9046C10.4702 13.2394 10.1977 13.5119 9.86295 13.5119H1.01233C0.67754 13.5119 0.405095 13.2394 0.405095 12.9046V3.96253C0.405095 3.8508 0.314415 3.76012 0.202683 3.76012C0.0909529 3.76012 0.000272751 3.8508 0.000272751 3.96253V12.905C0.000272751 13.4629 0.454078 13.9167 1.01233 13.9167Z" fill="#B8B8B8"/>
<path d="M0.202622 4.16499H3.43553C3.54726 4.16499 3.63794 4.07431 3.63794 3.96258V0.729266C3.63794 0.617536 3.54726 0.526855 3.43553 0.526855C3.3238 0.526855 3.23312 0.617536 3.23312 0.729266V3.75976H0.202622C0.0908916 3.75976 0.000211477 3.85044 0.000211477 3.96217C0.000211477 4.0739 0.0904868 4.16499 0.202622 4.16499Z" fill="#B8B8B8"/>
<path d="M0.202907 4.1649C0.255533 4.1649 0.30816 4.14425 0.347833 4.10377L3.58074 0.783017C3.65847 0.703267 3.65685 0.574534 3.57669 0.496808C3.49694 0.418677 3.36861 0.420701 3.29048 0.500856L0.057575 3.82161C-0.0201507 3.90136 -0.0185313 4.03009 0.0616233 4.10782C0.100891 4.14587 0.151899 4.1649 0.202907 4.1649Z" fill="#B8B8B8"/>
</svg>
