<svg xmlns="http://www.w3.org/2000/svg" width="189" height="498" viewBox="0 0 189 498" fill="none"><path d="M190.5 1.9L208.4 19.2 214 34.5V34.7L214.1 34.8 227.5 49 232.3 60.2 240.7 77.2V77.3L251.3 90 256.6 111.7V111.9L256.8 112 270.2 122.6 270.3 149.6V149.9L270.5 150.1 278.5 157.3 289.1 167.9 293.7 188.8V188.9L293.8 189 305 205.2 316.6 241.1V241.2 241.3L326.2 254.6 330.3 287V287.1 287.2L338.1 303.9 349.5 335.3 356.2 352 357.7 370.4V370.7L357.9 370.9 367.7 380.1 368.3 400.8V401.1L368.5 401.3 374 406.2 378.1 428.8V428.9L384.2 443.7 384.1 450V450.2L384.2 450.4 390.2 458.9 390.4 467.4V467.6 467.7L396.8 482.8 396.5 494 381.6 497 375.3 492.4 375.2 492.3H375L367.1 489.8 361.3 485.3 361.1 485.2H360.9L341.8 481.4 326.7 473.9H326.6 326.5L311.9 471.3 305.3 470.5 293.6 467.1H293.4 277 257.5L247 463.7H246.9 246.8L187.6 462.4H187.5 187.4L179.5 464.9 148.1 464.2 134 465.3H133.8L133.7 465.3 126 469.1 113.3 468.7H112.9L112.7 469 109 472.8 90.8 472.4H90.5L90.3 472.6 83.1 477.5 74.3 482H62.7L62.5 482.1 54 486.4 38.6 489.3H38.5L25.6 495.4 5.1 496.3 1.4 473.7 8.6 457.7V457.6 457.4L7.2 426.8 18.4 411.9 18.5 411.7V411.5L21.2 392.1 25.7 382.6 31.7 374.4 31.8 374.2V374.1L36.1 348.4 45.3 332.6 45.4 332.4V332.3L47 299.6 55.3 285.2V285.1 285.1L63.5 254.7 72.9 249 73.3 248.8V248.5L75.3 220.3 84.3 210.4 84.5 210.2V209.9L85.7 187.1 91.6 179.7 100 166.6V166.5 166.4L106.4 143.6 124.6 118.8V118.7 118.6L130.3 100 140.6 89.9 140.8 89.7V89.5L144.2 70.8 153.9 56.5V56.4 56.3L159.6 39.1 170.7 29.7 170.8 29.5V29.4L176.2 14.3 190.5 1.9ZM190.5 0.9L175.5 13.8 170 29.1 158.8 38.7 153.3 56.1 143.5 70.5 140.1 89.4 129.6 99.7 124 118.4 105.8 143.2 99.4 166.1 91 179.2 85 186.8 83.7 209.8 74.7 220 72.6 248.5 62.9 254.2 54.6 284.9 46.2 299.4 44.7 332.2 35.5 348.1 31.2 373.9 25.1 382.2 20.5 391.9 17.8 411.5 6.4 426.6 7.9 457.4 0.6 473.6 4.4 497.2 25.7 496.3 38.8 490.2 54.2 487.2 62.8 482.7H74.4L83.5 478.1 90.6 473.1 109.2 473.6 113.1 469.4 126.1 469.7 134 465.8 148.1 464.8 179.5 465.5 187.5 462.9 246.6 464.2 257.3 467.7H276.9 293.2L305 471.1 311.7 471.9 326.3 474.5 341.5 482 361 485.9 366.9 490.4 375 492.9 381.5 497.7 397.4 494.7 397.7 482.7 391.2 467.5 391 458.6 384.8 450 385 443.5 378.8 428.8 374.9 405.9 369.2 400.7 368.7 379.8 358.6 370.3 357.1 351.8 350.4 335 338.9 303.7 331.1 286.9 327 254.3 317.3 240.9 305.7 204.9 294.4 188.6 289.7 167.5 278.9 156.8 271 149.6 271 122.3 257.5 111.5 252.1 89.7 241.4 76.9 233.1 59.9 228.2 48.6 214.7 34.3 209.2 18.8 190.5 0.9Z" fill="black"/></svg>