<svg xmlns="http://www.w3.org/2000/svg" width="100%" height="100%" viewBox="0 0 80 103" fill="none"><path d="M38.3 1.2L41.8 4.7 42.9 7.8V7.9L42.9 7.9 45.6 10.8 46.5 13.1 48.2 16.5V16.5L50.3 19.1 51.3 23.5V23.6L51.3 23.6 54 25.7 54 31.2V31.3L54 31.3 55.6 32.8 57.7 34.9 58.6 39.2V39.2L58.6 39.2 60.8 42.5 63.1 49.8V49.9 49.9L65 52.6 65.8 59.2V59.2 59.2L67.3 62.6 69.5 69 70.9 72.4 71.1 76.1V76.2L71.2 76.2 73.1 78.1 73.2 82.3V82.4L73.3 82.4 74.4 83.4 75.2 88V88L76.4 91 76.3 92.3V92.3L76.4 92.4 77.5 94.1 77.6 95.8V95.9 95.9L78.8 99 78.8 101.2 75.8 101.8 74.6 100.9 74.6 100.9H74.6L73 100.4 71.9 99.5 71.8 99.5H71.8L68 98.7 65.1 97.2H65 65L62.2 96.6 60.9 96.5 58.6 95.8H58.5 55.3 51.5L49.4 95.1H49.4 49.4L37.7 94.8H37.7 37.7L36.1 95.3 30 95.2 27.2 95.4H27.2L27.2 95.4 25.6 96.2 23.1 96.1H23.1L23 96.1 22.3 96.9 18.7 96.9H18.7L18.6 96.9 17.2 97.9 15.5 98.8H13.2L13.2 98.8 11.5 99.7 8.5 100.3H8.4L5.9 101.5 1.9 101.7 1.2 97.1 2.6 93.9V93.8 93.8L2.3 87.6 4.5 84.5 4.5 84.5V84.5L5 80.5 5.9 78.6 7.1 76.9 7.1 76.9V76.9L8 71.6 9.8 68.4 9.8 68.4V68.4L10.1 61.7 11.7 58.8V58.8 58.8L13.4 52.6 15.2 51.4 15.3 51.4V51.3L15.7 45.6 17.4 43.6 17.5 43.6V43.5L17.7 38.9 18.9 37.4 20.5 34.7V34.7 34.7L21.8 30 25.4 25V25 24.9L26.5 21.2 28.5 19.1 28.5 19.1V19L29.2 15.2 31.1 12.3V12.3 12.3L32.2 8.8 34.4 6.9 34.4 6.8V6.8L35.5 3.7 38.3 1.2ZM38.3 1L35.4 3.6 34.3 6.7 32.1 8.7 31 12.2 29.1 15.2 28.4 19 26.3 21.1 25.2 24.9 21.7 29.9 20.4 34.6 18.8 37.3 17.6 38.8 17.3 43.5 15.6 45.5 15.1 51.3 13.2 52.5 11.6 58.7 10 61.7 9.7 68.4 7.9 71.6 7 76.8 5.8 78.5 4.9 80.5 4.4 84.5 2.1 87.5 2.4 93.8 1 97.1 1.8 101.9 5.9 101.7 8.5 100.5 11.5 99.8 13.2 98.9H15.5L17.3 98 18.7 97 22.3 97.1 23.1 96.2 25.7 96.3 27.2 95.5 30 95.3 36.2 95.4 37.7 94.9 49.3 95.2 51.4 95.9H55.3 58.5L60.8 96.6 62.1 96.7 65 97.3 68 98.8 71.8 99.6 73 100.5 74.5 101 75.8 102 78.9 101.4 79 98.9 77.7 95.9 77.7 94.1 76.5 92.3 76.5 91 75.3 88 74.5 83.3 73.4 82.3 73.3 78 71.3 76.1 71 72.3 69.7 68.9 67.5 62.6 65.9 59.1 65.1 52.5 63.2 49.8 60.9 42.5 58.7 39.2 57.8 34.9 55.7 32.7 54.1 31.2 54.1 25.7 51.5 23.5 50.4 19.1 48.3 16.5 46.7 13 45.7 10.7 43.1 7.8 42 4.6 38.3 1Z" style="fill:black;opacity:0.2;stroke-width:0.5;stroke:black"/></svg>