<svg width="85" height="86" viewBox="0 0 85 86" fill="none" xmlns="http://www.w3.org/2000/svg">
<path d="M50.7016 46.323V68.3367H56.3627V73.693H13.595V68.3367H19.256V46.323" stroke="#000206" stroke-miterlimit="10"/>
<path d="M25.5784 48.484V69.0767" stroke="black" stroke-miterlimit="10"/>
<path d="M31.8425 48.484V69.0767" stroke="black" stroke-miterlimit="10"/>
<path d="M38.115 48.484V69.0767" stroke="black" stroke-miterlimit="10"/>
<path d="M44.3792 48.484V69.0767" stroke="black" stroke-miterlimit="10"/>
<path d="M58.473 42.7241L34.9662 25.8312L11.4846 42.7241H58.473Z" stroke="#000206" stroke-miterlimit="10"/>
<path d="M68.9577 35.6104V84.6578H1V14.8664H48.4824" stroke="#000206" stroke-miterlimit="10"/>
<path d="M77.2483 1.19402L83.4872 7.41639L63.6317 27.3112L54.4953 30.1112L57.4263 21.0972L77.2483 1.19402ZM77.2483 0L56.6894 20.6431L53.1973 31.3893L64.0839 28.0259L84.6429 7.38276L77.2483 0Z" fill="#000206"/>
<path d="M57.3843 19.9452L64.7704 27.3616" stroke="#000206" stroke-miterlimit="10"/>
</svg>
