<svg width="86" height="83" viewBox="0 0 86 83" fill="none" xmlns="http://www.w3.org/2000/svg">
<path d="M85.1889 15.6489H1V79.1273H85.1889V15.6489Z" stroke="black" stroke-miterlimit="10"/>
<path d="M58.2481 1H28.2769V15.6489H58.2481V1Z" stroke="black" stroke-miterlimit="10"/>
<path d="M20.5321 79.6324H17.1646V83H20.5321V79.6324Z" fill="black"/>
<path d="M69.1932 79.6324H65.8257V83H69.1932V79.6324Z" fill="black"/>
<path d="M68.1927 34.5601L45.6167 28.386L43.1293 37.4814L65.7053 43.6555L68.1927 34.5601Z" stroke="black" stroke-miterlimit="10"/>
<path d="M55.3858 67.3409C52.1866 66.3306 50.5029 62.7947 51.5131 59.5955C52.5234 56.3963 56.0593 54.7125 59.2585 55.7228C62.4577 56.7331 64.1415 60.269 63.1312 63.4682C61.9526 66.6673 58.585 68.3511 55.3858 67.3409Z" stroke="black" stroke-miterlimit="10"/>
<path d="M33.6642 38.4257L15.5168 43.5552L18.8144 55.2213L36.9617 50.0919L33.6642 38.4257Z" stroke="black" stroke-miterlimit="10"/>
</svg>
