<svg width="94" height="84" viewBox="0 0 94 84" fill="none" xmlns="http://www.w3.org/2000/svg">
<path d="M1.00024 13.4088V82.7H92.8984V13.4088H1.00024ZM58.5285 56.6009L46.9493 67.8125L43.2734 64.1366L35.9215 57.1523L35.3701 56.6009C32.2456 53.6602 30.4076 49.4329 30.4076 44.838C30.4076 42.8162 30.7752 40.9782 31.5104 39.1403C32.797 35.832 35.0025 33.075 37.9433 31.0532C40.5164 29.3991 43.641 28.2963 47.1331 28.2963C51.5442 28.2963 55.4039 29.9505 58.3447 32.7074C60.734 34.913 62.3882 37.6699 63.1234 40.7945C63.491 42.081 63.6748 43.3676 63.6748 44.838C63.491 49.4329 61.653 53.6602 58.5285 56.6009Z" stroke="black" stroke-miterlimit="10"/>
<path d="M54.8526 44.838C54.8526 49.2491 51.3605 52.7412 46.9494 52.7412C44.56 52.7412 42.3545 51.6385 40.8841 49.8005C39.7813 48.5139 39.0461 46.676 39.0461 44.838C39.0461 44.4704 39.0461 44.1028 39.0461 43.7352C39.5975 39.8755 42.9059 36.9348 46.7656 36.9348C47.1332 36.9348 47.317 36.9348 47.6846 36.9348C49.1549 37.1185 50.4415 37.6699 51.5443 38.5889C53.566 39.8755 54.8526 42.2648 54.8526 44.838Z" stroke="black" stroke-miterlimit="10"/>
<path d="M35.9213 57.1524L19.012 82.7001H1V20.7607L31.3264 39.1404C30.5912 40.9783 30.2236 42.8163 30.2236 44.838C30.2236 49.433 32.0616 53.6603 35.1861 56.601L35.9213 57.1524Z" stroke="black" stroke-miterlimit="10"/>
<path d="M79.8488 13.4089L58.1609 32.7075C55.2201 29.9505 51.1766 28.2964 46.9493 28.2964C43.641 28.2964 40.5164 29.2153 37.7595 31.0533L8.53589 13.4089H79.8488Z" stroke="black" stroke-miterlimit="10"/>
<path d="M92.8988 13.4089V82.7H30.9595L43.2738 64.1366L46.9497 67.8126L58.5289 56.601C61.6534 53.6602 63.4914 49.4329 63.4914 44.838C63.4914 43.3677 63.3076 42.0811 62.94 40.7945L92.3474 13.4089H92.8988V13.4089Z" stroke="black" stroke-miterlimit="10"/>
<path d="M62.9398 40.7945C62.2047 37.67 60.5505 34.9131 58.1611 32.7075C55.2204 29.9506 51.1769 28.2964 46.9496 28.2964C43.6412 28.2964 40.5167 29.2154 37.7598 31.0533C34.819 32.8913 32.6135 35.832 31.3269 39.1404C30.5917 40.9783 30.2241 42.8163 30.2241 44.838C30.2241 49.433 32.0621 53.6603 35.1866 56.601L35.738 57.1524L43.0899 64.1367L46.7658 67.8126L58.3449 56.601C61.4695 53.6603 63.3074 49.433 63.3074 44.838C63.4912 43.3677 63.3074 42.0811 62.9398 40.7945ZM40.8843 49.8005C39.7815 48.514 39.0463 46.676 39.0463 44.838C39.0463 44.4705 39.0463 44.1029 39.0463 43.7353C39.5977 39.8756 42.9061 36.9348 46.7658 36.9348C47.1334 36.9348 47.3172 36.9348 47.6848 36.9348C49.1551 37.1186 50.4417 37.67 51.5445 38.589C53.3824 40.0593 54.669 42.2649 54.669 44.838C54.669 49.2492 51.1769 52.7413 46.7658 52.7413C44.5602 52.7413 42.3547 51.4547 40.8843 49.8005Z" stroke="black" stroke-miterlimit="10"/>
<path d="M21.9179 1L1.45753 13.0664C1.36982 13.1181 1.41133 13.2497 1.51315 13.2497H21.9179V1Z" stroke="black"/>
<path d="M72.5145 1L92.9748 13.0664C93.0625 13.1181 93.021 13.2497 92.9192 13.2497H72.5145V1Z" stroke="black"/>
</svg>
