<svg width="87" height="84" viewBox="0 0 87 84" fill="none" xmlns="http://www.w3.org/2000/svg">
<path d="M86.0623 14.2697H1V83H86.0623V14.2697Z" stroke="black" stroke-miterlimit="10"/>
<path d="M1 25.4979H86.0623" stroke="black" stroke-miterlimit="10"/>
<path d="M34.0042 34.0042H31.2822V36.7261H34.0042V34.0042Z" fill="black"/>
<path d="M44.8919 34.0042H42.1699V36.7261H44.8919V34.0042Z" fill="black"/>
<path d="M55.7801 34.0042H53.0581V36.7261H55.7801V34.0042Z" fill="black"/>
<path d="M66.6683 34.0042H63.9463V36.7261H66.6683V34.0042Z" fill="black"/>
<path d="M77.5565 34.0042H74.8345V36.7261H77.5565V34.0042Z" fill="black"/>
<path d="M12.2283 43.361H9.50635V46.083H12.2283V43.361Z" fill="black"/>
<path d="M23.1158 43.361H20.3938V46.083H23.1158V43.361Z" fill="black"/>
<path d="M34.004 43.361H31.282V46.083H34.004V43.361Z" fill="black"/>
<path d="M44.8917 43.361H42.1697V46.083H44.8917V43.361Z" fill="black"/>
<path d="M55.7799 43.361H53.0579V46.083H55.7799V43.361Z" fill="black"/>
<path d="M66.668 43.361H63.946V46.083H66.668V43.361Z" fill="black"/>
<path d="M77.5557 43.361H74.8337V46.083H77.5557V43.361Z" fill="black"/>
<path d="M12.2283 52.888H9.50635V55.61H12.2283V52.888Z" fill="black"/>
<path d="M23.1158 52.888H20.3938V55.61H23.1158V52.888Z" fill="black"/>
<path d="M34.004 52.888H31.282V55.61H34.004V52.888Z" fill="black"/>
<path d="M44.8917 52.888H42.1697V55.61H44.8917V52.888Z" fill="black"/>
<path d="M55.7799 52.888H53.0579V55.61H55.7799V52.888Z" fill="black"/>
<path d="M66.668 52.888H63.946V55.61H66.668V52.888Z" fill="black"/>
<path d="M77.5557 52.888H74.8337V55.61H77.5557V52.888Z" fill="black"/>
<path d="M12.2283 62.415H9.50635V65.137H12.2283V62.415Z" fill="black"/>
<path d="M23.1158 62.415H20.3938V65.137H23.1158V62.415Z" fill="black"/>
<path d="M34.004 62.415H31.282V65.137H34.004V62.415Z" fill="black"/>
<path d="M44.8917 62.415H42.1697V65.137H44.8917V62.415Z" fill="black"/>
<path d="M55.7799 62.415H53.0579V65.137H55.7799V62.415Z" fill="black"/>
<path d="M66.668 62.415H63.946V65.137H66.668V62.415Z" fill="black"/>
<path d="M77.5557 62.415H74.8337V65.137H77.5557V62.415Z" fill="black"/>
<path d="M12.2283 71.7718H9.50635V74.4938H12.2283V71.7718Z" fill="black"/>
<path d="M23.1158 71.7718H20.3938V74.4938H23.1158V71.7718Z" fill="black"/>
<path d="M34.004 71.7718H31.282V74.4938H34.004V71.7718Z" fill="black"/>
<path d="M44.8917 71.7718H42.1697V74.4938H44.8917V71.7718Z" fill="black"/>
<path d="M55.7799 71.7718H53.0579V74.4938H55.7799V71.7718Z" fill="black"/>
<path d="M10.8674 14.2697L43.5313 1L76.1952 14.2697H10.8674Z" stroke="black" stroke-miterlimit="10"/>
</svg>
