<svg width="1440" height="542" viewBox="0 0 1440 542" fill="none" xmlns="http://www.w3.org/2000/svg">
<path d="M1440 0H0L1.91611e-06 541.34C0.000462059 537.55 0.910748 533.815 2.65436 530.45C4.39796 527.084 6.92394 524.186 10.02 522L26.33 510.46C27.8501 509.378 29.2394 508.123 30.47 506.72L65.26 467C66.4004 465.696 67.6815 464.522 69.08 463.5L139.79 411.61C140.756 410.895 141.669 410.109 142.52 409.26L191.74 360C195.059 356.683 198.81 353.828 202.89 351.51L270.43 313.26C271.902 312.408 273.28 311.403 274.54 310.26L328.02 262.47C329.476 261.16 331.092 260.041 332.83 259.14L383.42 232.67C385.541 231.56 387.482 230.138 389.18 228.45L424.12 193.59C426.508 191.206 429.124 189.063 431.93 187.19L475.26 158.19L523.9 122.25C525.046 121.397 526.268 120.651 527.55 120.02L589.35 89.74C590.355 89.2489 591.324 88.6875 592.25 88.06L647.68 50.36C649.042 49.4492 650.497 48.6849 652.02 48.08L720.02 20L795.55 53.08C796.951 53.6916 798.29 54.4349 799.55 55.3L858.68 96.2C859.1 96.49 859.53 96.77 859.98 97.04L940.02 145C941.074 145.642 942.077 146.364 943.02 147.16L996.02 191.61C997.09 192.514 998.242 193.318 999.46 194.01L1050.75 223.39C1052.18 224.212 1053.52 225.184 1054.75 226.29L1102.68 269.14C1103.86 270.196 1105.15 271.13 1106.52 271.93L1150.27 297.48C1151.57 298.244 1152.8 299.128 1153.94 300.12L1196.31 337.27C1197.74 338.524 1199.31 339.602 1201 340.48L1249.21 365.48C1250.23 366.012 1251.21 366.617 1252.14 367.29L1297.14 399.76C1298.01 400.385 1298.92 400.953 1299.86 401.46L1365.18 436.22C1368.96 438.238 1372.5 440.691 1375.71 443.53L1432.02 493.27C1434.54 495.492 1436.55 498.224 1437.93 501.284C1439.17 504.046 1439.88 507.017 1440 510.037V0Z" fill="white"/>
</svg>
