<svg width="1440" height="159" viewBox="0 0 1440 159" fill="none" xmlns="http://www.w3.org/2000/svg">
<path d="M0 159H1440L1439.89 135.831C1439.89 136.282 1439.79 136.727 1439.6 137.133C1439.4 137.543 1439.11 137.903 1438.76 138.186C1438.4 138.469 1437.99 138.668 1437.55 138.768C1437.1 138.867 1436.64 138.864 1436.2 138.76L1376.51 124.93C1371.04 123.662 1365.71 121.846 1360.6 119.51L1313.31 97.9396C1311.96 97.3273 1310.56 96.8419 1309.12 96.4896L1264.1 85.4696C1262.89 85.1714 1261.7 84.777 1260.55 84.2897L1197.02 57.5497C1190.88 54.968 1184.55 52.8422 1178.1 51.1896L1144.32 42.5397C1138.53 41.0512 1132.64 40.0081 1126.69 39.4197L1094.44 36.2196H1093.96C1092.83 36.1067 1091.71 35.913 1090.61 35.6397L1069.17 30.2997C1057.86 27.4791 1046.28 25.8601 1034.63 25.4696L994.14 24.1096C992.887 24.0697 991.64 23.9292 990.41 23.6896L957.92 17.3696C956.818 17.1564 955.701 17.0227 954.58 16.9696L917.36 15.0996C916.63 15.0698 915.902 14.9998 915.18 14.8897L865.46 7.76966H865.13L801.13 0.579592C800.254 0.479739 799.372 0.429812 798.49 0.42969H657.95C656.31 0.428957 654.674 0.599856 653.07 0.939578L616.2 8.69959C614.922 8.96521 613.624 9.12586 612.32 9.17969L580.86 10.4996C580.13 10.4996 579.4 10.5996 578.68 10.6996L532.5 16.9297C531.69 17.0397 530.87 17.1096 530.05 17.1397L504.21 17.9197C490.863 18.3231 477.64 20.6055 464.93 24.6996L454.03 28.2096C452.208 28.8007 450.321 29.1669 448.41 29.2997L417.07 31.5197C411.22 31.9324 405.445 33.078 399.88 34.9297L373.46 43.7096C372.675 43.9705 371.877 44.1908 371.07 44.3696L314.53 56.7596C304.4 58.9722 294.554 62.3269 285.18 66.7596L282.65 67.9596L282.39 68.0796C280.989 68.746 279.525 69.272 278.02 69.6497L233.28 80.8296C228.38 82.0498 223.621 83.7793 219.08 85.9896L199.08 95.7096C197.214 96.6334 195.233 97.3059 193.19 97.7096L146.25 106.71C144.924 106.963 143.622 107.331 142.36 107.81L98.1 124.51C93.5499 126.189 88.8278 127.36 84.02 128L23.66 136.32C22.8705 136.426 22.0762 136.493 21.28 136.52L3.12 137.18C2.71606 137.196 2.31301 137.13 1.93507 136.987C1.55712 136.843 1.21209 136.625 0.920675 136.344C0.629264 136.064 0.397492 135.728 0.239279 135.356C0.0816934 134.985 0.000324098 134.587 1.91573e-06 134.184L0 159Z" fill="white"/>
</svg>
