<svg version="1.1" xmlns="http://www.w3.org/2000/svg">
    <symbol id="logo-name" viewBox="0 0 75 17">
        <path d="M1.4 15.7V5.4H3.4V15.7H1.4Z"/>
        <path d="M8.5 5.4L14.2 12.3V5.4H16.2V15.7H14.2L8.5 9V15.7H6.5V6.9 5.4H8.5Z"/>
        <path d="M19.4 5.4H23.5C26.6 5.4 28.7 7.2 28.7 10.4 28.7 13.6 26.6 15.7 23.5 15.7H19.4V7.4L19.4 5.4ZM21.5 7.4V13.6H23.5C25.5 13.6 26.6 12.5 26.6 10.5 26.6 8.5 25.5 7.4 23.5 7.4L21.5 7.4Z"/>
        <path d="M31.2 15.7V5.4H33.2V15.7H31.2Z"/>
        <path d="M48 4.4C47.4 3.8 46.7 3.4 46 3.1 45.3 2.7 44.5 2.6 43.7 2.6 40.4 2.6 37.8 5 37.8 8.3 37.8 11.5 40.6 13.8 43.7 13.8 45.1 13.8 46.5 13.3 47.6 12.4V9.7H44.7V7.6H49.7V13.3C48.9 14.2 48 14.8 47 15.3 45.9 15.8 44.8 16 43.7 16 42.6 16 41.6 15.8 40.6 15.4 39.6 15 38.8 14.4 38 13.7 37.3 13 36.7 12.1 36.3 11.1 35.9 10.1 35.7 9.1 35.7 8 35.7 3.7 39.4 0.4 43.7 0.4 45.8 0.4 47.8 1.2 49.3 2.7L48 4.4Z"/>
        <path d="M75 7V15.7H72.8V9.6L69.1 14.5 65.5 9.6V15.7H63.3V7 5.4H65.5L69.2 10.6 72.8 5.4H75L75 7Z"/>
        <path d="M2.4 0.1L0.8 1.6 2.4 3.2 4 1.6 2.4 0.1Z"/>
        <path d="M32.2 0.1L30.6 1.6 32.2 3.2 33.8 1.6 32.2 0.1Z"/>
        <path d="M54.5 13.6V11.4H59.2V9.3H54.5V7.4H60.6V5.4H52.5V15.7H61V13.6H54.5Z"/>
    </symbol>

    <symbol id="logo-name-news" viewBox="0 0 138 17">
        <path d="M0.589844 15.6118V5.33228H2.60789V15.6118H0.589844Z"/>
        <path d="M7.68589 5.33228L13.3876 12.2605V5.33228H15.4211V15.6118H13.3876L7.68976 8.92469V15.6118H5.65234V6.86021V5.33228H7.68589Z"/>
        <path d="M18.5429 5.33228H22.7107C25.8094 5.33228 27.8895 7.11681 27.8895 10.3865C27.8895 13.5824 25.8327 15.6079 22.7107 15.6079H18.5352V7.37341L18.5429 5.33228ZM20.6733 7.37341V13.5474H22.7107C24.6861 13.5474 25.8094 12.416 25.8094 10.4371C25.8094 8.45813 24.6823 7.3773 22.7107 7.3773L20.6733 7.37341Z"/>
        <path d="M30.3633 15.6118V5.33228H32.3813V15.6118H30.3633Z" />
        <path d="M47.1508 4.33722C46.5891 3.76384 45.9184 3.30944 45.1786 3.0009C44.4387 2.69237 43.6447 2.53599 42.8436 2.54102C39.5589 2.54102 37.0334 4.90096 37.0334 8.23677C37.0334 11.4326 39.7797 13.7731 42.8668 13.7731C44.2869 13.7806 45.6621 13.2741 46.7402 12.3463V9.65584H43.9088V7.51363H48.8745V13.2716C48.1139 14.1193 47.1835 14.7961 46.1441 15.2577C45.1048 15.7193 43.9801 15.9554 42.8436 15.9503C41.7971 15.965 40.7583 15.7689 39.7886 15.3738C38.8189 14.9787 37.9379 14.3926 37.1977 13.6499C36.4574 12.9073 35.873 12.0233 35.4789 11.0502C35.0848 10.077 34.889 9.03444 34.9031 7.98406C34.9031 3.61408 38.6215 0.359924 42.8552 0.359924C44.98 0.351676 47.0211 1.19075 48.5297 2.69265L47.1508 4.33722Z" />
        <path d="M74.1781 6.97685V15.6118H71.9432V9.59728L68.3254 14.4416L64.7037 9.59728V15.6118H62.4727V6.97685V5.33228H64.7154L68.337 10.542L71.9548 5.33228H74.1859L74.1781 6.97685Z" />
        <path d="M1.5831 7.94265e-05L0 1.58911L1.5831 3.17814L3.16619 1.58911L1.5831 7.94265e-05Z" />
        <path d="M31.38 0.000856491L29.7969 1.58984L31.38 3.17883L32.9631 1.58984L31.38 0.000856491Z" />
        <path d="M53.7173 13.5474V11.3196H58.4235V9.28237H53.7173V7.37341H59.7676V5.33228H51.7031V15.6118H60.1472V13.5474H53.7173Z" />
        <path d="M81.1875 0.948242H84.0075L93.5875 12.3482V0.948242H95.7875V15.8682H93.6275L85.0675 5.60824V15.8682H82.9275V3.04825L81.1875 0.948242ZM102.423 13.7882H108.923V15.8682H100.383V5.50825H108.543V7.56824H102.423V10.0882C102.876 9.82158 103.376 9.65491 103.923 9.58825C104.483 9.52157 105.063 9.48825 105.663 9.48825H107.183V11.5482H105.663C105.183 11.5482 104.783 11.5615 104.463 11.5882C104.156 11.6015 103.889 11.6282 103.663 11.6682C103.436 11.7082 103.23 11.7682 103.043 11.8482C102.856 11.9282 102.649 12.0282 102.423 12.1482V13.7882ZM116.744 5.50825H119.084L121.444 13.1082L124.224 5.50825H126.424L122.784 15.8682H120.004L118.704 11.7682L117.644 15.8682H114.904L111.324 5.50825H113.544L116.224 13.1082L117.584 8.20825L116.744 5.50825ZM135.693 8.06824C135.293 7.7349 134.826 7.50157 134.293 7.36825C133.773 7.23491 133.213 7.16825 132.613 7.16825C132.359 7.16825 132.106 7.20157 131.853 7.26824C131.613 7.32157 131.393 7.40158 131.193 7.50825C130.993 7.60158 130.826 7.72158 130.693 7.86825C130.573 8.00157 130.513 8.14158 130.513 8.28825C130.513 8.44825 130.533 8.59491 130.573 8.72825C130.626 8.84825 130.726 8.95491 130.873 9.04825C131.033 9.12825 131.259 9.19491 131.553 9.24825C131.86 9.30158 132.266 9.32825 132.773 9.32825C133.866 9.32825 134.746 9.41491 135.413 9.58825C136.093 9.76158 136.613 9.99491 136.973 10.2882C137.333 10.5815 137.573 10.9215 137.693 11.3082C137.813 11.6949 137.873 12.0949 137.873 12.5082C137.873 13.1349 137.739 13.6815 137.473 14.1482C137.206 14.6015 136.833 14.9815 136.353 15.2882C135.886 15.5815 135.333 15.8015 134.693 15.9482C134.053 16.1082 133.366 16.1882 132.633 16.1882C131.713 16.1882 130.839 15.9949 130.013 15.6082C129.199 15.2082 128.506 14.6682 127.933 13.9882L129.413 12.4882C129.573 12.6482 129.739 12.8282 129.913 13.0282C130.099 13.2282 130.313 13.4149 130.553 13.5882C130.806 13.7615 131.099 13.9082 131.433 14.0282C131.766 14.1349 132.166 14.1882 132.633 14.1882C133.593 14.1882 134.366 14.0482 134.953 13.7682C135.539 13.4882 135.833 13.0682 135.833 12.5082C135.833 12.0415 135.566 11.7349 135.033 11.5882C134.513 11.4415 133.713 11.3682 132.633 11.3682C132.006 11.3682 131.433 11.3149 130.913 11.2082C130.393 11.1015 129.939 10.9282 129.553 10.6882C129.18 10.4349 128.886 10.1149 128.673 9.72825C128.459 9.32825 128.353 8.84825 128.353 8.28825C128.353 7.82158 128.466 7.39491 128.693 7.00825C128.933 6.62158 129.246 6.29491 129.633 6.02824C130.019 5.74824 130.473 5.53491 130.993 5.38825C131.513 5.24158 132.059 5.16825 132.633 5.16825C133.393 5.16825 134.133 5.25491 134.853 5.42825C135.573 5.60158 136.313 5.94825 137.073 6.46825L135.693 8.06824Z" />
    </symbol>

    <symbol id="arrow-horizontal" viewBox="0 0 47 20">
        <path d="M45.8 10L0 10"/>
        <path d="M36.8 19L45.8 10 36.8 1"/>
    </symbol>

    <symbol id="basket" viewBox="0 0 15 19">
        <path d="M14.7 15.8L13.7 4.7C13.7 4.5 13.5 4.3 13.2 4.3H11.2C11.2 2.5 9.7 1 7.8 1 6 1 4.5 2.5 4.5 4.3H2.4C2.2 4.3 2 4.5 2 4.7L1 15.8C1 15.8 1 15.8 1 15.8 1 17.1 2.1 18.1 3.6 18.1H12.1C13.5 18.1 14.7 17.1 14.7 15.8 14.7 15.8 14.7 15.8 14.7 15.8ZM7.8 1.9C9.2 1.9 10.2 3 10.3 4.3H5.4C5.4 3 6.5 1.9 7.8 1.9ZM12.1 17.1H3.6C2.7 17.1 2 16.5 1.9 15.8L2.9 5.3H4.5V6.7C4.5 7 4.7 7.2 4.9 7.2 5.2 7.2 5.4 7 5.4 6.7V5.3H10.3V6.7C10.3 7 10.5 7.2 10.7 7.2 11 7.2 11.2 7 11.2 6.7V5.3H12.8L13.7 15.8C13.7 16.5 13 17.1 12.1 17.1Z"/>
    </symbol>

    <symbol id="logo-show-round" viewBox="0 0 17 17">
        <path d="M8.5 0.6C4.14 0.6 0.6 4.14 0.6 8.5C0.6 12.86 4.14 16.4 8.5 16.4C12.86 16.4 16.4 12.86 16.4 8.5C16.4 4.14 12.86 0.6 8.5 0.6Z"></path>
        <path d="M6.84 10.73L6.84 6.14L10.98 8.44L6.84 10.73Z"></path>
    </symbol>

    <symbol id="logo" viewBox="0 0 80 103">
        <path d="M38.3 1.2L41.8 4.7 42.9 7.8V7.9L42.9 7.9 45.6 10.8 46.5 13.1 48.2 16.5V16.5L50.3 19.1 51.3 23.5V23.6L51.3 23.6 54 25.7 54 31.2V31.3L54 31.3 55.6 32.8 57.7 34.9 58.6 39.2V39.2L58.6 39.2 60.8 42.5 63.1 49.8V49.9 49.9L65 52.6 65.8 59.2V59.2 59.2L67.3 62.6 69.5 69 70.9 72.4 71.1 76.1V76.2L71.2 76.2 73.1 78.1 73.2 82.3V82.4L73.3 82.4 74.4 83.4 75.2 88V88L76.4 91 76.3 92.3V92.3L76.4 92.4 77.5 94.1 77.6 95.8V95.9 95.9L78.8 99 78.8 101.2 75.8 101.8 74.6 100.9 74.6 100.9H74.6L73 100.4 71.9 99.5 71.8 99.5H71.8L68 98.7 65.1 97.2H65 65L62.2 96.6 60.9 96.5 58.6 95.8H58.5 55.3 51.5L49.4 95.1H49.4 49.4L37.7 94.8H37.7 37.7L36.1 95.3 30 95.2 27.2 95.4H27.2L27.2 95.4 25.6 96.2 23.1 96.1H23.1L23 96.1 22.3 96.9 18.7 96.9H18.7L18.6 96.9 17.2 97.9 15.5 98.8H13.2L13.2 98.8 11.5 99.7 8.5 100.3H8.4L5.9 101.5 1.9 101.7 1.2 97.1 2.6 93.9V93.8 93.8L2.3 87.6 4.5 84.5 4.5 84.5V84.5L5 80.5 5.9 78.6 7.1 76.9 7.1 76.9V76.9L8 71.6 9.8 68.4 9.8 68.4V68.4L10.1 61.7 11.7 58.8V58.8 58.8L13.4 52.6 15.2 51.4 15.3 51.4V51.3L15.7 45.6 17.4 43.6 17.5 43.6V43.5L17.7 38.9 18.9 37.4 20.5 34.7V34.7 34.7L21.8 30 25.4 25V25 24.9L26.5 21.2 28.5 19.1 28.5 19.1V19L29.2 15.2 31.1 12.3V12.3 12.3L32.2 8.8 34.4 6.9 34.4 6.8V6.8L35.5 3.7 38.3 1.2ZM38.3 1L35.4 3.6 34.3 6.7 32.1 8.7 31 12.2 29.1 15.2 28.4 19 26.3 21.1 25.2 24.9 21.7 29.9 20.4 34.6 18.8 37.3 17.6 38.8 17.3 43.5 15.6 45.5 15.1 51.3 13.2 52.5 11.6 58.7 10 61.7 9.7 68.4 7.9 71.6 7 76.8 5.8 78.5 4.9 80.5 4.4 84.5 2.1 87.5 2.4 93.8 1 97.1 1.8 101.9 5.9 101.7 8.5 100.5 11.5 99.8 13.2 98.9H15.5L17.3 98 18.7 97 22.3 97.1 23.1 96.2 25.7 96.3 27.2 95.5 30 95.3 36.2 95.4 37.7 94.9 49.3 95.2 51.4 95.9H55.3 58.5L60.8 96.6 62.1 96.7 65 97.3 68 98.8 71.8 99.6 73 100.5 74.5 101 75.8 102 78.9 101.4 79 98.9 77.7 95.9 77.7 94.1 76.5 92.3 76.5 91 75.3 88 74.5 83.3 73.4 82.3 73.3 78 71.3 76.1 71 72.3 69.7 68.9 67.5 62.6 65.9 59.1 65.1 52.5 63.2 49.8 60.9 42.5 58.7 39.2 57.8 34.9 55.7 32.7 54.1 31.2 54.1 25.7 51.5 23.5 50.4 19.1 48.3 16.5 46.7 13 45.7 10.7 43.1 7.8 42 4.6 38.3 1Z"/>
    </symbol>


</svg>


