<svg width="14" height="14" viewBox="0 0 14 14" fill="none" xmlns="http://www.w3.org/2000/svg">
<path d="M10.6014 7.32589C10.7504 7.17261 10.7504 6.9313 10.6014 6.77802C10.4574 6.62475 10.2177 6.62475 10.0741 6.77802L7.37323 9.55082V0.389061C7.37323 0.175371 7.20809 0 7.00034 0C6.79258 0 6.62208 0.175371 6.62208 0.389061V9.55082L3.92659 6.77802C3.77757 6.62475 3.53759 6.62475 3.39394 6.77802C3.24492 6.9313 3.24492 7.17261 3.39394 7.32589L6.73418 10.7615C6.87816 10.9096 7.11781 10.9096 7.26683 10.7615L10.6014 7.32589ZM13.2488 9.84115C13.2488 9.62746 13.414 9.45761 13.6217 9.45761C13.8295 9.45761 14 9.62746 14 9.84115V13.6109C14 13.8246 13.8295 14 13.6217 14H0.37289C0.165132 14 0 13.8246 0 13.6109V9.84115C0 9.62746 0.165132 9.45761 0.37289 9.45761C0.580648 9.45761 0.751151 9.62746 0.751151 9.84115V13.2274H13.2488V9.84115Z" fill="#1E201D"/>
</svg>
